# xmcd
#
# Track frame offsets:
#	150
#	13310
#	36744
#	52214
#	72714
#	89926
#	105597
#	124645
#	137969
#	157158
#	174317
#	189763
#	205565
#
# Disc length: 2913 seconds
#
# Revision: 0
# Processed by: cddbd v1.5.2PL0 Copyright (c) Steve Scherf et al.
# Submitted via: MusicManager 7.3.0.0 
#
DISCID=c80b5f0d
DTITLE=MIKE DENVER - TRADITION
DYEAR=2011
DGENRE=country
TTITLE0=STILL FEELIN' BLUE
TTITLE1=BOSTON ROSE
TTITLE2=NO MORE PHONE CALLS
TTITLE3=PADDY
TTITLE4=GENTLE O MY MIND
TTITLE5={come down the mountain }KATIE DALY
TTITLE6=KNOWING YOU'LL BE THERE
TTITLE7=RUN THAT BY ME ONE MORE TIME
TTITLE8=SEVEN DRUNKEN NIGHTS
TTITLE9=GOD'S PLAN
TTITLE10=I WAN'T TO BE IN IRELANDFOR THE SUMMER
TTITLE11=THE DAY OF MY RETURN
TTITLE12=HOW WE GOT COUNTRY
EXTD=
EXTT0=
EXTT1=
EXTT2=
EXTT3=
EXTT4=
EXTT5=
EXTT6=
EXTT7=
EXTT8=
EXTT9=
EXTT10=
EXTT11=
EXTT12=
PLAYORDER=
